<?xml version="1.0" encoding="UTF-8" standalone="no"?>
<!-- Created with Inkscape (http://www.inkscape.org/) -->

<svg
   xmlns:dc="http://purl.org/dc/elements/1.1/"
   xmlns:cc="http://creativecommons.org/ns#"
   xmlns:rdf="http://www.w3.org/1999/02/22-rdf-syntax-ns#"
   xmlns:svg="http://www.w3.org/2000/svg"
   xmlns="http://www.w3.org/2000/svg"
   xmlns:sodipodi="http://sodipodi.sourceforge.net/DTD/sodipodi-0.dtd"
   xmlns:inkscape="http://www.inkscape.org/namespaces/inkscape"
   width="54.153271mm"
   height="163.77707mm"
   viewBox="0 0 54.15327 163.77707"
   version="1.1"
   id="svg8"
   inkscape:version="0.92.4 (5da689c313, 2019-01-14)"
   sodipodi:docname="drawing.svg">
  <defs
     id="defs2" />
  <sodipodi:namedview
     id="base"
     pagecolor="#ffffff"
     bordercolor="#666666"
     borderopacity="1.0"
     inkscape:pageopacity="0.0"
     inkscape:pageshadow="2"
     inkscape:zoom="2"
     inkscape:cx="139.08612"
     inkscape:cy="426.03406"
     inkscape:document-units="mm"
     inkscape:current-layer="layer1"
     showgrid="false"
     fit-margin-top="0"
     fit-margin-left="0"
     fit-margin-right="0"
     fit-margin-bottom="0"
     inkscape:window-width="3840"
     inkscape:window-height="2066"
     inkscape:window-x="-11"
     inkscape:window-y="-11"
     inkscape:window-maximized="1" />
  <metadata
     id="metadata5">
    <rdf:RDF>
      <cc:Work
         rdf:about="">
        <dc:format>image/svg+xml</dc:format>
        <dc:type
           rdf:resource="http://purl.org/dc/dcmitype/StillImage" />
        <dc:title></dc:title>
      </cc:Work>
    </rdf:RDF>
  </metadata>
  <g
     inkscape:label="Layer 1"
     inkscape:groupmode="layer"
     id="layer1"
     transform="translate(34.036682,-101.85115)">
    <path
       style="fill:#000000;stroke-width:0.99999994"
       d="m -88.125,384.94922 h 21 21 l 19.742188,19.75781 19.7402339,19.75977 v 21 21 l -20.2597659,20.24023 -20.257812,20.24219 h -20.5 -20.501953 l -20.240231,-20.25977 -20.24024,-20.25976 v -20.5 -20.5 l 20.25781,-20.24024 z m 1.113281,2.88867 -6.066406,6.13281 -6.064453,6.13086 11.810547,-5.82617 11.810547,-5.82812 -5.746094,-0.30469 z m 35.208985,0.16016 c -0.534733,-0.009 -1.130734,-0.004 -1.806641,0.002 l -5.533203,0.0508 10.5,5.39649 c 5.775005,2.96859 10.708592,5.42276 10.964844,5.44921 0.256214,0.0282 -1.97743,-2.42423 -4.964844,-5.44921 -4.643745,-4.70219 -5.417029,-5.38548 -9.160156,-5.44922 z m -15.839844,0.46679 -7.742188,7.74219 -7.742187,7.74024 h 15.484375 15.484375 l -7.742188,-7.74024 z m -7.5,3.31446 -15.246094,7.58789 -15.246098,7.58984 -7.50976,14.99609 c -4.13072,8.24773 -7.39161,14.99415 -7.24609,14.99415 0.14551,0 10.38546,-10.16272 22.755854,-22.58399 z m 16,0 22.492187,22.58398 c 12.370405,12.42127 22.610348,22.58399 22.75586,22.58399 0.145549,0 -3.115373,-6.74642 -7.246094,-14.99415 l -7.509766,-14.99609 -15.246093,-7.58984 z m -27.871094,16.07812 -9.314453,9.27539 -9.314455,9.27539 v 8.00977 8.00781 l 17.015627,-16.98828 17.017578,-16.98828 -7.703125,-0.29688 z m 19.826172,0.0899 -7.955078,8 -7.953125,8.00195 h 15.726562 c 8.6496,0 15.726563,-0.12497 15.726563,-0.27539 0,-0.15039 -3.498414,-3.75004 -7.773438,-8 z m 4.066406,0 16.490235,16.51757 16.488281,16.51758 0.296875,-7.20117 0.296875,-7.20117 -9.277344,-9.31641 -9.277344,-9.3164 h -7.507812 z m -49.335936,5.5 -6.5918,6.47265 -6.59375,6.4707 v 6.44532 c 0,3.54508 0.17431,6.25833 0.38672,6.02929 0.21237,-0.22919 3.17786,-6.04297 6.5918,-12.91796 z m 91.660155,2 5.326172,10.8164 5.328125,10.81641 0.3085936,-5.2461 c 0.3052347,-5.19114 0.2475097,-5.30627 -5.3281246,-10.8164 z m -64.845703,11.5 v 7 c 0,3.84997 0.125029,7 0.277344,7 0.152239,0 3.402158,-3.15003 7.222656,-7 l 6.945312,-7 h -7.222656 z m 21.548828,0 7.451172,7.5 c 4.097461,4.12497 7.573428,7.5 7.724609,7.5 0.151559,0 0.275391,-3.37503 0.275391,-7.5 v -7.5 h -7.72461 z m -3.089844,1 -8.958984,9 -8.957031,9 8.457031,8.5 c 4.651049,4.67535 8.699464,8.50195 8.998047,8.50195 0.29862,0 4.472114,-3.94783 9.273437,-8.77149 l 8.728516,-8.76953 -8.769531,-8.73047 z m -21.458984,1.51562 -8.234375,8.23438 -8.234377,8.23437 7.960939,8.00977 c 4.378545,4.40439 8.08395,8.00781 8.234375,8.00781 0.150426,0 0.273438,-7.30886 0.273438,-16.24219 z m -20.000002,0.0332 -8,7.95313 -8.00195,7.95312 7.72656,7.77344 c 4.24997,4.27502 7.85153,7.77344 8.00195,7.77344 0.15043,0 0.27344,-7.07696 0.27344,-15.72656 z m 63.000002,0 v 15.72657 c 0,8.6496 0.123012,15.72656 0.273437,15.72656 0.150426,0 3.750035,-3.49842 8,-7.77344 l 7.728516,-7.77344 -8.001953,-7.95312 z m 20,0.96875 v 15.48438 15.48242 l 7.742187,-7.74023 7.742188,-7.74219 -7.742188,-7.74219 z m -60,19.03711 v 7.22266 7.22266 h 7 c 3.850016,0 7,-0.12308 7,-0.27539 0,-0.15228 -3.149984,-3.40213 -7,-7.22266 z m -19.500002,0.41211 -0.29883,7.20117 -0.29687,7.20118 9.779296,9.8164 9.779296,9.81641 h 7.50586 7.507812 l -16.988281,-17.01758 z m 75.000002,0 -16.990234,17.01758 -16.988282,17.01758 h 8.009766 8.007812 l 9.275391,-9.31445 9.275391,-9.31446 -0.294922,-7.70312 z m -18.777344,0.0352 c -0.152239,0 -3.402158,3.14998 -7.222656,7 l -6.947266,7 h 7.222656 7.22461 v -7 c 0,-3.85002 -0.125029,-7 -0.277344,-7 z m -76.222658,2.8789 -0.30469,5.72461 -0.30468,5.72657 5.77343,5.83398 c 3.17545,3.20893 5.89727,5.83594 6.04883,5.83594 0.15171,0 -2.30929,-5.20225 -5.46875,-11.56055 z m 115.000002,1 -5.828125,11.81055 -5.826172,11.81055 6.132813,-6.06641 6.132812,-6.06445 -0.3066406,-5.74609 z m -3.761719,0.1211 c -0.139691,0 -10.600577,10.38361 -23.246094,23.07617 l -22.992187,23.07813 15.59375,-7.73438 15.591797,-7.73437 7.652343,-15.34375 c 4.208958,-8.43878 7.540234,-15.3418 7.400391,-15.3418 z m -106.892583,0.5 7.32618,14.84961 7.32812,14.85156 14.500002,7.34766 c 15.187842,7.6944 15,7.60314 15,7.1914 0,-0.14218 -9.935561,-10.15471 -22.078125,-22.25 z m 36.701177,12.5 7.953125,8 c 4.374198,4.39997 8.199149,8 8.5,8 0.300812,0 4.125801,-3.60003 8.5,-8 l 7.953125,-8 h -16.453125 z m 1,20 7.953125,8 c 4.374198,4.40001 7.973543,8 8,8 0.02581,0 3.625801,-3.59999 8,-8 l 7.953125,-8 h -15.953125 z m -15.046875,4.81055 5.96875,6.09375 5.96875,6.0957 h 5.947266 c 3.27137,0 5.760289,-0.17469 5.53125,-0.38672 -0.229191,-0.21211 -5.591015,-2.95376 -11.916016,-6.09375 z m 62,0 -11.5,5.70898 c -6.325002,3.13999 -11.68893,5.88172 -11.917969,6.09375 -0.229153,0.21218 2.261833,0.38672 5.533203,0.38672 h 5.947266 l 5.96875,-6.0957 z m -40.5,39.68945 c 2.273008,0 2.527648,0.43128 2.804687,4.75 l 0.304688,4.75 h 9.822265 c 10.818293,0 11.803903,-0.47642 12.986329,-6.25781 0.531552,-2.59915 1.152779,-3.24219 3.123047,-3.24219 1.971855,0 2.525314,0.57391 2.791015,2.9043 0.450784,3.95191 -2.494151,10.1198 -5.480469,11.48046 -1.345852,0.61319 -7.119464,1.11524 -12.832031,1.11524 h -10.386719 l -0.316406,2.75 c -0.215854,1.87215 -0.967358,2.8419 -2.357422,3.04101 -2.568453,0.36768 -3.458984,-0.50992 -3.458984,-3.41211 0,-2.12836 -0.469937,-2.30883 -6.75,-2.58398 -6.454451,-0.28271 -6.75,-0.40632 -6.75,-2.79687 0,-2.38848 0.298979,-2.51178 6.697266,-2.79297 l 6.697265,-0.29492 0.302735,-4.70508 c 0.275036,-4.27174 0.533203,-4.70508 2.802734,-4.70508 z M -89.275391,559.504 c 0.607432,-0.0321 1.193367,0.23662 2.03125,0.79297 3.821405,2.53727 4.238056,4.34466 1.642579,7.10742 -2.810533,2.99168 -2.928949,3.01206 -5.81836,0.98828 -2.853241,-1.9985 -2.863172,-5.88323 -0.01953,-7.875 0.92725,-0.64955 1.556631,-0.9816 2.164061,-1.01367 z m 27.375,1.44531 c 10.51801,0 14.344885,0.34867 15.816407,1.4414 1.553461,1.15355 1.720397,1.80263 0.833984,3.25 -0.978595,1.59795 -2.902802,1.83977 -16.525391,2.08204 -15.528642,0.2762 -17.867187,-0.17421 -17.867187,-3.43946 0,-2.55224 4.164348,-3.33398 17.742187,-3.33398 z m 8.019532,20.98633 c 9.792436,0.003 9.005061,0.64502 9.201171,10.71289 0.162823,8.35665 -1.494941,12.4899 -5.929687,14.7832 -5.770583,2.98409 -12.702221,0.99287 -15.521484,-4.45898 -0.86109,-1.66515 -1.511719,-5.53067 -1.511719,-8.97461 0,-6.48873 -1.227197,-7.68101 -4.517578,-4.39063 -1.678526,1.67853 -1.655433,5.91755 0.06641,12.69727 0.684359,2.69469 -0.463663,4.58166 -2.814453,4.6289 -1.975824,0.0396 -4.726992,-6.75861 -4.730469,-11.6875 -0.0082,-11.45718 2.880494,-13.29687 20.878906,-13.29687 1.864455,0 3.479987,-0.0141 4.878907,-0.0137 z m -7.761719,6.01367 v 5.06445 c 0,2.78616 0.465808,5.93618 1.035156,7 0.714558,1.33512 2.097499,1.93555 4.464844,1.93555 3.984605,0 5.5,-2.02684 5.5,-7.35352 0,-5.89137 -0.695101,-6.64648 -6.107422,-6.64648 z m 2.345703,31.00195 c 10.371515,-0.008 14.654297,5.76729 14.654297,19.75781 0,5.54211 -0.448819,9.28675 -1.201172,10.03907 -0.865776,0.86596 -7.341175,1.17816 -23.25,1.12109 -12.127483,-0.0434 -22.611332,-0.30657 -23.298828,-0.58398 -0.872844,-0.35222 -1.248702,-3.26933 -1.246094,-9.66993 0.003,-7.32703 0.394776,-9.81021 1.955078,-12.36914 3.742337,-6.13765 11.650833,-8.05236 17.791016,-4.30859 1.78749,1.08968 3.25,1.53047 3.25,0.98047 0,-2.10932 6.518944,-4.96306 11.345703,-4.9668 z m 0.0059,5.99805 c -5.701152,0 -8.351562,4.17312 -8.351562,13.14844 v 4.85156 h 8.5 8.5 v -5.55078 c 0,-8.63547 -2.650554,-12.44922 -8.648438,-12.44922 z m -21.351562,2 c -1.149997,0 -3.194913,1.10311 -4.544922,2.45312 -2.015887,2.01589 -2.455078,3.44556 -2.455078,8 v 5.54688 h 7 7 v -5.54688 c 0,-4.55444 -0.439192,-5.98411 -2.455078,-8 -1.35001,-1.35001 -3.394887,-2.45312 -4.544922,-2.45312 z m 21.882812,36.99805 c 12.084548,0 13.026611,0.13882 13.615235,1.99218 0.34696,1.09508 0.350615,2.44509 0.0078,3 -0.365027,0.59063 -5.753321,1.00782 -12.99414,1.00782 -9.911736,0 -12.682219,0.31304 -13.941407,1.57226 -1.802305,1.80231 -2.045531,5.67197 -0.535156,8.49414 0.937625,1.75208 2.197867,1.9336 13.376953,1.9336 10.041373,0 12.588786,0.29543 13.658203,1.58398 0.951988,1.14728 1.02463,2.04308 0.265625,3.25 -0.860069,1.36758 -3.354139,1.75563 -13.919921,2.16602 l -12.873047,0.5 -0.964844,2.75 c -0.619691,1.7667 -0.618381,3.73329 0.002,5.5 l 0.964844,2.75 12.958984,0.2832 c 7.127509,0.15488 13.348893,0.67116 13.826172,1.14844 0.477354,0.47724 0.567786,1.81338 0.201172,2.96875 -0.641613,2.02167 -1.282174,2.09961 -17.039063,2.09961 -9.005442,0 -16.558384,-0.33751 -16.785156,-0.75 -1.122482,-2.04307 -0.607038,-15.54172 0.689453,-18.04883 1.20737,-2.3345 1.214371,-3.11173 0.04687,-5.22071 -1.70691,-3.0833 -1.834201,-10.02656 -0.248047,-13.50781 2.068271,-4.53936 5.423299,-5.47265 19.6875,-5.47265 z m -0.167968,56.92382 c 6.277922,-0.0603 12.270974,0.36726 13.041015,1.32813 0.550942,0.68749 1.073227,4.72644 1.160157,8.97656 0.182211,8.91111 -1.362044,12.91807 -5.882813,15.25586 -5.770583,2.98405 -12.702221,0.99287 -15.521484,-4.45898 -0.831912,-1.60872 -1.511719,-5.4223 -1.511719,-8.47461 0,-4.84986 -0.247767,-5.55078 -1.964844,-5.55078 -2.814123,0 -4.330623,3.50629 -3.615234,8.36132 1.271093,8.62613 1.212867,9.12009 -1.113282,9.45118 -3.00359,0.42742 -5.30664,-4.2667 -5.30664,-10.8125 0,-6.18244 2.040926,-10.45233 5.966797,-12.48243 1.907849,-0.98655 8.470124,-1.53346 14.748047,-1.59375 z m -2.714844,6.97266 v 5.05273 c 0,3.71895 0.527836,5.58057 2,7.05274 2.544113,2.54419 4.470372,2.52963 7.052734,-0.0527 1.603351,-1.60354 1.986599,-3.08041 1.75,-6.75 l -0.302734,-4.69726 -5.25,-0.30274 z m -6.085938,30.10547 c 3.390879,0 4.458684,1.44546 5.533204,7.5 2.205014,12.42459 2.612724,13.5 5.134765,13.5 1.329411,0 3.360916,-0.94494 4.513672,-2.09766 1.717266,-1.71723 1.982187,-2.84642 1.470703,-6.25 -1.260623,-8.38836 -1.153501,-10.0867 0.65625,-10.44726 2.672806,-0.53231 5.769658,5.4172 5.773438,11.09375 0.0046,5.89765 -2.091672,10.18169 -5.962891,12.18359 -4.544655,2.35011 -19.605074,2.07469 -23.71875,-0.43359 -4.202759,-2.5626 -5.314453,-4.86921 -5.314453,-11.03321 0,-8.68769 4.528601,-14.01562 11.914062,-14.01562 z m -1.53125,6.37109 c -0.438461,-0.003 -1.292988,0.53906 -2.195312,1.44141 -3.053291,3.05231 -3.0328,9.48197 0.03516,11.63086 1.222375,0.85617 2.968456,1.55664 3.878906,1.55664 1.515137,0 1.536314,-0.57248 0.257813,-6.75 -0.76834,-3.71252 -1.528067,-7.17186 -1.689453,-7.6875 -0.04034,-0.1289 -0.140956,-0.19043 -0.28711,-0.19141 z m -7.40039,27.12891 c 2.093858,0 2.578234,0.58656 3.091797,3.74609 1.115792,6.86427 2.672912,7.65518 15.695312,7.97266 9.849449,0.24 11.676389,0.543 12.623047,2.08984 0.885506,1.44699 0.719023,2.09676 -0.833984,3.25 -2.786797,2.06903 -29.326423,2.07094 -32.117188,0.002 -1.66526,-1.23459 -1.75995,-1.73569 -0.667969,-3.52344 0.941141,-1.5411 0.990588,-2.61019 0.191407,-4.10352 -0.594482,-1.11061 -0.942761,-3.68735 -0.773438,-5.72656 0.265588,-3.19877 0.64878,-3.70703 2.791016,-3.70703 z m 7.310547,30.54883 c 3.468529,-0.0183 7.031945,0.45108 10.478515,1.47461 9.815244,2.91481 14.228516,9.6214 14.228516,21.61914 0,4.69765 -0.365304,5.98188 -1.935547,6.82226 -1.942753,1.03986 -43.32707,1.37674 -45.814453,0.37305 -1.729663,-0.69797 -1.646505,-14.45622 0.113281,-18.66797 2.972296,-7.11374 12.5241,-11.56616 22.929688,-11.62109 z M -69.5,828.10938 c -5.609692,-0.067 -10.883512,1.6352 -14.310547,4.69726 -2.497852,2.23185 -3.184653,3.75431 -3.587891,7.95117 l -0.498046,5.19141 h 18.755859 18.757813 l -0.50586,-4.48633 c -0.942161,-8.35892 -5.558575,-12.12581 -16.191406,-13.21484 -0.810699,-0.083 -1.618537,-0.1291 -2.419922,-0.13867 z m -17.625,52.83984 h 20 20 l 20.242188,20.25781 20.2402339,20.25977 v 21 21 l -20.2597659,20.24023 -20.257812,20.24217 H -67.595703 -88.03125 l -20.30664,-20.21873 -20.30469,-20.21875 V 942.9707 922.42969 l 20.75781,-20.74024 z m 0.113281,3.88867 -6.066406,6.13281 -6.064453,6.13282 11.810547,-5.82813 11.810547,-5.82617 -5.746094,-0.30664 z m 19.824219,0.10938 -7.955078,8 -7.953125,8.00195 h 15.726562 c 8.6496,0 15.726563,-0.12301 15.726563,-0.27344 0,-0.15042 -3.498414,-3.75199 -7.773438,-8.00195 z m 13.578125,0.0527 -5.533203,0.0508 10.5,5.39844 c 5.775005,2.96859 10.708592,5.42081 10.964844,5.44726 0.256214,0.0282 -1.97743,-2.42224 -4.964844,-5.44726 -5.307137,-5.37388 -5.559503,-5.49949 -10.966797,-5.44922 z m -5.533203,3.78125 22.492187,22.58398 c 12.370405,12.42127 22.610348,22.58399 22.75586,22.58399 0.145549,0 -3.115373,-6.74837 -7.246094,-14.9961 l -7.509766,-14.99609 -15.246093,-7.58789 z m -16,0.0137 -15.59375,7.73242 -15.593752,7.73438 -7.65234,15.34375 c -4.209,8.43878 -7.53828,15.34375 -7.39844,15.34375 0.13973,0 10.60059,-10.38557 23.246094,-23.07813 z m -10.869141,15.0586 -9.816406,9.77929 -9.814455,9.77735 v 7.50781 7.50781 l 17.01758,-16.98828 17.015625,-16.99023 -7.201172,-0.29688 z m 21.890625,0.0957 16.988282,17.01562 16.990234,17.01758 0.294922,-7.70312 0.294922,-7.70118 -9.275391,-9.31445 -9.275391,-9.31445 h -8.007812 z m -3.066406,0.99805 -7.955078,8 -7.953125,8.00195 h 15.726562 c 8.6496,0 15.726563,-0.12301 15.726563,-0.27344 0,-0.15039 -3.498414,-3.75199 -7.773438,-8.00195 z m -46.26562,6.50195 -6.09571,5.96875 -6.09375,5.96875 v 5.94726 c 0,3.27141 0.17274,5.76029 0.38477,5.53125 0.2121,-0.22919 2.95574,-5.59101 6.0957,-11.91601 z m 92.656245,1 5.326172,10.8164 5.328125,10.81641 0.3085936,-5.24805 c 0.3052347,-5.19114 0.2475097,-5.30627 -5.3281246,-10.8164 z m -64.845703,11.5 v 7 c 0,3.85001 0.125029,7 0.277344,7 0.152239,0 3.402158,-3.14999 7.222656,-7 l 6.945312,-7 h -7.222656 z m 21.548828,0 7.451172,7.5 c 4.097461,4.12501 7.573428,7.5 7.724609,7.5 0.151559,0 0.275391,-3.37499 0.275391,-7.5 v -7.5 h -7.72461 z m -3.007812,0.99805 -8.771485,8.73046 -8.771484,8.73047 8.730469,8.76953 8.730468,8.77149 8.771485,-8.73047 8.769531,-8.73047 -8.728516,-8.76953 z m -41.541018,1.54882 -8,7.95313 -8.00195,7.95312 7.72656,7.77344 c 4.24997,4.27502 7.85153,7.77344 8.00195,7.77344 0.15043,0 0.27344,-7.07696 0.27344,-15.72656 z m 20.000002,0 -8.001953,7.95313 -7.999999,7.95312 7.726561,7.77344 c 4.249966,4.27502 7.851528,7.77344 8.001953,7.77344 0.150426,0 0.273438,-7.07696 0.273438,-15.72656 z m 43,0 v 15.72657 c 0,8.6496 0.123012,15.72656 0.273437,15.72656 0.150426,0 3.750035,-3.49842 8,-7.77344 l 7.728516,-7.77344 -8.001953,-7.95312 z m 20,0 v 15.72657 c 0,8.6496 0.123012,15.72656 0.273437,15.72656 0.150388,0 3.750035,-3.49842 8,-7.77344 l 7.728516,-7.77344 -8.001953,-7.95312 z m -23,19.00196 -7.5,7.45117 c -4.125014,4.0975 -7.5,7.57343 -7.5,7.72461 0,0.15156 3.374986,0.27539 7.5,0.27539 h 7.5 v -7.72656 z m -37,1.0039 v 7.22266 7.22266 h 7 c 3.850016,0 7,-0.12308 7,-0.27539 0,-0.15224 -3.149984,-3.40213 -7,-7.22266 z m -19.500002,0.41211 -0.29883,7.20117 -0.29687,7.20118 9.779296,9.8164 9.779296,9.81641 h 7.50586 7.507812 l -16.988281,-17.01758 z m 75.000002,0 -16.990234,17.01758 -16.988282,17.01758 h 8.009766 8.007812 l 9.275391,-9.31445 9.275391,-9.31446 -0.294922,-7.70312 z m -95.000002,2.91406 -0.30469,5.72461 -0.30468,5.72657 5.77343,5.83398 c 3.17545,3.20893 5.89727,5.83594 6.04883,5.83594 0.15171,0 -2.30929,-5.20225 -5.46875,-11.56055 z m 115.000002,1 -5.828125,11.81055 -5.826172,11.81055 6.132813,-6.06641 6.132812,-6.06445 -0.3066406,-5.74609 z m -3.751953,0.1211 c -0.145512,0 -10.385455,10.16272 -22.75586,22.58398 l -22.492187,22.58399 15.246094,-7.58985 15.246093,-7.58789 7.509766,-14.99609 c 4.130721,-8.24769 7.391606,-14.99414 7.246094,-14.99414 z m -106.902349,0.5 7.32618,14.84961 7.32812,14.85156 14.500002,7.34766 c 15.187842,7.69436 15,7.60311 15,7.1914 0,-0.14218 -9.935561,-10.15471 -22.078125,-22.25 z m 37.701177,12.5 7.953125,8 c 4.374198,4.39997 7.973543,8 8,8 0.02581,0 3.625801,-3.60003 8,-8 l 7.953125,-8 h -15.953125 z m 0,20 7.953125,8 c 4.374198,4.40001 7.973543,8 8,8 0.02581,0 3.625801,-3.59999 8,-8 l 7.953125,-8 h -15.953125 z m 47.953125,3.8125 -12.5,6.20703 c -6.874999,3.41393 -12.686976,6.38135 -12.916016,6.59375 -0.229153,0.2122 2.482298,0.3867 6.027344,0.3867 h 6.445312 l 6.472657,-6.59373 z m -63,0.99805 5.96875,6.09375 5.96875,6.09568 h 5.947266 c 3.27137,0 5.760289,-0.1747 5.53125,-0.3867 -0.229191,-0.2121 -5.591015,-2.95379 -11.916016,-6.09375 z"
       transform="scale(0.26458333)"
       id="path828"
       inkscape:connector-curvature="0"
       sodipodi:nodetypes="ccccccccccccccccccccccccccccccccccccccccccsccccsccccccccccccccccssccccccccccccccsccccccccccssccccccsscccccccsccccccccsscccccssccssccccccccccccccssccccccccccccccccccccsccccssccccscccccccccscccccsccccsscccsccccccscccccccsccccccscccsccscsccscccscscccsscsccsscccssccscsccccsccscsssccscccsccscsscccssssscccssssccsccsccscccccccsccccscccccssccscccsccccccscscccccssscccscccsccccccccsscscccsccccccccccccccccccccccccccccccccccccssccccccccccsccccccccscccccccccccccccccccccccsscccccsccccccccccssccccccssccccccccccccccccsscccccssccsscccccssccccccssccccccssccccccccccccccccccccccccscccccccccscccccsccccsscccsccccccscccccccsccccccsccc" />
    <g
       aria-label="Made with â¤ by ferm10n"
       transform="rotate(-90)"
       style="font-style:normal;font-weight:normal;font-size:10.58333302px;line-height:1.25;font-family:sans-serif;letter-spacing:0px;word-spacing:0px;fill:#000000;fill-opacity:1;stroke:none;stroke-width:0.26458332"
       id="text835">
      <path
         d="m -245.1979,17.98752 h -1.02319 v -6.630086 l -2.13941,4.511353 h -0.60978 l -2.1239,-4.511353 v 6.630086 h -0.95602 V 10.2929 h 1.39527 l 2.05155,4.283976 1.98438,-4.283976 h 1.4211 z"
         style="stroke-width:0.26458332"
         id="path837" />
      <path
         d="m -238.71251,17.98752 h -0.96635 v -0.614949 q -0.12919,0.08785 -0.3514,0.248047 -0.21704,0.155029 -0.42375,0.248046 -0.24287,0.118856 -0.5581,0.196371 -0.31523,0.08268 -0.73897,0.08268 -0.78032,0 -1.32292,-0.516764 -0.5426,-0.516764 -0.5426,-1.317749 0,-0.656291 0.27905,-1.059367 0.28422,-0.408244 0.80615,-0.640788 0.5271,-0.232544 1.26608,-0.315226 0.73897,-0.08268 1.58646,-0.124023 v -0.149862 q 0,-0.330729 -0.11885,-0.54777 -0.11369,-0.217041 -0.33073,-0.341065 -0.20671,-0.118855 -0.4961,-0.160197 -0.28939,-0.04134 -0.60461,-0.04134 -0.38241,0 -0.85266,0.103353 -0.47026,0.09819 -0.97152,0.289388 h -0.0517 v -0.98702 q 0.28422,-0.07751 0.82166,-0.170532 0.53743,-0.09302 1.05937,-0.09302 0.60978,0 1.05936,0.103352 0.45476,0.09819 0.78548,0.341065 0.32557,0.237711 0.4961,0.614949 0.17053,0.377238 0.17053,0.935344 z m -0.96635,-1.421102 v -1.607137 q -0.44442,0.02584 -1.04903,0.07752 -0.59945,0.05168 -0.95085,0.149862 -0.41858,0.118855 -0.67696,0.37207 -0.25838,0.248047 -0.25838,0.687297 0,0.496093 0.29972,0.749308 0.29973,0.248047 0.91468,0.248047 0.51159,0 0.93534,-0.196371 0.42375,-0.201538 0.78548,-0.480591 z"
         style="stroke-width:0.26458332"
         id="path839" />
      <path
         d="m -232.1496,17.98752 h -0.97152 v -0.604614 q -0.41858,0.361735 -0.87333,0.563273 -0.45475,0.201538 -0.98702,0.201538 -1.03353,0 -1.64331,-0.795817 -0.60462,-0.795817 -0.60462,-2.206583 0,-0.733806 0.20671,-1.307414 0.21187,-0.573609 0.56844,-0.976685 0.3514,-0.392741 0.81649,-0.599446 0.47025,-0.206706 0.97152,-0.206706 0.45475,0 0.80615,0.09818 0.3514,0.09302 0.73897,0.294556 V 9.9466676 h 0.97152 z m -0.97152,-1.421102 v -3.312459 q -0.39274,-0.1757 -0.7028,-0.242879 -0.31006,-0.06718 -0.67696,-0.06718 -0.81649,0 -1.27124,0.56844 -0.45475,0.568441 -0.45475,1.612305 0,1.028361 0.3514,1.565796 0.3514,0.532267 1.12654,0.532267 0.41341,0 0.83716,-0.180867 0.42375,-0.186036 0.79065,-0.475424 z"
         style="stroke-width:0.26458332"
         id="path841" />
      <path
         d="m -225.40583,15.202161 h -4.25297 q 0,0.532267 0.1602,0.930175 0.1602,0.392741 0.43925,0.645956 0.26872,0.248047 0.63562,0.37207 0.37207,0.124023 0.81649,0.124023 0.58911,0 1.18339,-0.232543 0.59944,-0.237712 0.85266,-0.465088 h 0.0517 v 1.059366 q -0.49092,0.206706 -1.00252,0.346233 -0.5116,0.139526 -1.07487,0.139526 -1.4366,0 -2.24276,-0.775147 -0.80615,-0.780314 -0.80615,-2.211751 0,-1.415934 0.76998,-2.247924 0.77515,-0.831991 2.03605,-0.831991 1.16789,0 1.79834,0.682129 0.63562,0.682129 0.63562,1.937866 z m -0.94568,-0.744141 q -0.005,-0.764811 -0.38757,-1.18339 -0.37724,-0.418579 -1.15238,-0.418579 -0.78032,0 -1.24541,0.45992 -0.45992,0.45992 -0.52193,1.142049 z"
         style="stroke-width:0.26458332"
         id="path843" />
      <path
         d="m -212.95181,12.215263 -1.50378,5.772257 h -0.89917 l -1.48312,-4.44934 -1.47278,4.44934 h -0.894 l -1.51928,-5.772257 h 1.01285 l 1.05937,4.470011 1.44177,-4.470011 h 0.80099 l 1.47794,4.470011 1.00253,-4.470011 z"
         style="stroke-width:0.26458332"
         id="path845" />
      <path
         d="m -210.50752,11.248914 h -1.09554 v -1.007691 h 1.09554 z m -0.062,6.738606 h -0.97151 v -5.772257 h 0.97151 z"
         style="stroke-width:0.26458332"
         id="path847" />
      <path
         d="m -205.6396,17.935844 q -0.27388,0.07235 -0.59944,0.118856 -0.3204,0.04651 -0.57361,0.04651 -0.88367,0 -1.34359,-0.475423 -0.45992,-0.475423 -0.45992,-1.524455 v -3.069579 h -0.65629 v -0.816488 h 0.65629 v -1.658814 h 0.97152 v 1.658814 h 2.00504 v 0.816488 h -2.00504 v 2.63033 q 0,0.454752 0.0207,0.713135 0.0207,0.253214 0.14469,0.475423 0.11369,0.206705 0.31006,0.304891 0.20154,0.09302 0.60978,0.09302 0.23772,0 0.4961,-0.06718 0.25838,-0.07235 0.37207,-0.118856 h 0.0517 z"
         style="stroke-width:0.26458332"
         id="path849" />
      <path
         d="m -199.63479,17.98752 h -0.97152 v -3.286621 q 0,-0.397908 -0.0465,-0.74414 -0.0465,-0.3514 -0.17053,-0.547771 -0.12919,-0.217041 -0.37207,-0.320393 -0.24288,-0.108521 -0.63045,-0.108521 -0.39791,0 -0.83199,0.196371 -0.43409,0.19637 -0.83199,0.501261 v 4.309814 h -0.97152 V 9.9466676 h 0.97152 v 2.9093834 q 0.45475,-0.377238 0.94051,-0.589112 0.48576,-0.211873 0.99735,-0.211873 0.93535,0 1.42627,0.563273 0.49093,0.563273 0.49093,1.62264 z"
         style="stroke-width:0.26458332"
         id="path851" />
      <path
         d="m -189.70775,17.326062 q -0.0827,-0.454753 -0.66146,-0.909505 -0.86816,-0.7028 -1.69499,-0.909505 -1.03352,-0.289388 -1.57096,-0.868164 -0.53743,-0.620118 -0.57877,-1.570964 0.0413,-0.909505 0.70279,-1.570963 0.62012,-0.578777 1.28158,-0.620118 0.90951,-0.04134 1.52962,0.413412 0.57878,0.454752 0.99219,1.405599 0.45475,-0.992188 0.99219,-1.405599 0.62011,-0.454753 1.48828,-0.413412 0.74414,0.04134 1.36426,0.661459 0.66145,0.661458 0.66145,1.529622 0.0413,0.950846 -0.53743,1.570964 -0.53743,0.661458 -1.57096,0.868164 -0.86817,0.206705 -1.52963,0.74414 -0.74414,0.578776 -0.86816,1.07487 z"
         style="stroke-width:0.26458332"
         id="path853" />
      <path
         d="m -173.08861,15.057467 q 0,0.72347 -0.20671,1.302246 -0.20154,0.578776 -0.54777,0.971517 -0.3669,0.408243 -0.80615,0.614949 -0.43925,0.201538 -0.96635,0.201538 -0.49093,0 -0.85783,-0.118856 -0.3669,-0.113688 -0.72347,-0.310058 l -0.062,0.268717 h -0.90951 V 9.9466676 h 0.97152 v 2.8732094 q 0.40824,-0.335897 0.86816,-0.54777 0.45992,-0.217041 1.03353,-0.217041 1.0232,0 1.61231,0.785482 0.59428,0.785481 0.59428,2.216919 z m -1.00253,0.02584 q 0,-1.033529 -0.34106,-1.565796 -0.34106,-0.537435 -1.10071,-0.537435 -0.42374,0 -0.85783,0.186035 -0.43408,0.180868 -0.80615,0.470256 v 3.307291 q 0.41341,0.186035 0.70797,0.258382 0.29972,0.07235 0.67696,0.07235 0.80615,0 1.2609,-0.527099 0.45992,-0.532267 0.45992,-1.663981 z"
         style="stroke-width:0.26458332"
         id="path855" />
      <path
         d="m -166.60322,12.215263 -3.3693,7.901326 h -1.0387 l 1.07487,-2.408122 -2.2996,-5.493204 h 1.0542 l 1.7725,4.278808 1.788,-4.278808 z"
         style="stroke-width:0.26458332"
         id="path857" />
      <path
         d="m -158.50552,10.887179 h -0.0517 q -0.1602,-0.04651 -0.41858,-0.09302 -0.25838,-0.05168 -0.45475,-0.05168 -0.62529,0 -0.90951,0.279052 -0.27905,0.273885 -0.27905,0.997355 v 0.196371 h 1.75183 v 0.816488 h -1.72082 v 4.955769 h -0.97152 v -4.955769 h -0.65629 v -0.816488 h 0.65629 V 12.02406 q 0,-1.028361 0.5116,-1.576131 0.51159,-0.5529378 1.47794,-0.5529378 0.32556,0 0.58395,0.031006 0.26355,0.031006 0.48059,0.072347 z"
         style="stroke-width:0.26458332"
         id="path859" />
      <path
         d="m -153.05883,15.202161 h -4.25297 q 0,0.532267 0.1602,0.930175 0.1602,0.392741 0.43925,0.645956 0.26872,0.248047 0.63562,0.37207 0.37207,0.124023 0.81649,0.124023 0.58911,0 1.18339,-0.232543 0.59944,-0.237712 0.85266,-0.465088 h 0.0517 v 1.059366 q -0.49092,0.206706 -1.00252,0.346233 -0.5116,0.139526 -1.07487,0.139526 -1.4366,0 -2.24276,-0.775147 -0.80615,-0.780314 -0.80615,-2.211751 0,-1.415934 0.76998,-2.247924 0.77515,-0.831991 2.03605,-0.831991 1.16789,0 1.79834,0.682129 0.63562,0.682129 0.63562,1.937866 z m -0.94568,-0.744141 q -0.005,-0.764811 -0.38757,-1.18339 -0.37724,-0.418579 -1.15238,-0.418579 -0.78032,0 -1.24541,0.45992 -0.45992,0.45992 -0.52193,1.142049 z"
         style="stroke-width:0.26458332"
         id="path861" />
      <path
         d="m -147.9842,13.27463 h -0.0517 q -0.21704,-0.05168 -0.42374,-0.07235 -0.20154,-0.02584 -0.48059,-0.02584 -0.44959,0 -0.86817,0.201538 -0.41858,0.19637 -0.80615,0.511596 v 4.097941 h -0.97152 v -5.772257 h 0.97152 v 0.852661 q 0.57878,-0.465088 1.01803,-0.656291 0.44441,-0.19637 0.90433,-0.19637 0.25322,0 0.36691,0.0155 0.11368,0.01034 0.34106,0.04651 z"
         style="stroke-width:0.26458332"
         id="path863" />
      <path
         d="m -138.63593,17.98752 h -0.97152 v -3.286621 q 0,-0.37207 -0.0362,-0.718302 -0.031,-0.346232 -0.13953,-0.552938 -0.11886,-0.222209 -0.34106,-0.335897 -0.22221,-0.113688 -0.64079,-0.113688 -0.40825,0 -0.81649,0.206706 -0.40824,0.201538 -0.81649,0.516764 0.0155,0.118856 0.0258,0.279053 0.0103,0.155029 0.0103,0.310058 v 3.694865 h -0.97152 v -3.286621 q 0,-0.382405 -0.0362,-0.72347 -0.031,-0.346232 -0.13953,-0.552938 -0.11886,-0.222208 -0.34107,-0.330729 -0.2222,-0.113688 -0.64078,-0.113688 -0.39791,0 -0.80099,0.196371 -0.39791,0.19637 -0.79581,0.501261 v 4.309814 h -0.97152 v -5.772257 h 0.97152 v 0.640788 q 0.45475,-0.377238 0.90433,-0.589112 0.45476,-0.211873 0.96635,-0.211873 0.58911,0 0.99736,0.248047 0.41341,0.248047 0.61495,0.687296 0.58911,-0.496093 1.07487,-0.713134 0.48576,-0.222209 1.03869,-0.222209 0.95085,0 1.40043,0.578776 0.45476,0.573608 0.45476,1.607137 z"
         style="stroke-width:0.26458332"
         id="path865" />
      <path
         d="m -132.11953,17.98752 h -4.16513 v -0.785482 h 1.60197 v -5.157307 h -1.60197 v -0.7028 q 0.32557,0 0.69764,-0.05168 0.37207,-0.05684 0.56327,-0.160197 0.23771,-0.129191 0.37207,-0.325562 0.13953,-0.201538 0.1602,-0.537435 h 0.80098 v 6.934977 h 1.57097 z"
         style="stroke-width:0.26458332"
         id="path867" />
      <path
         d="m -124.95201,14.137626 q 0,2.072225 -0.65112,3.043742 -0.64596,0.966349 -2.01022,0.966349 -1.38493,0 -2.02571,-0.981852 -0.63562,-0.981852 -0.63562,-3.017904 0,-2.051554 0.64595,-3.028238 0.64596,-0.981853 2.01538,-0.981853 1.38493,0 2.02055,0.997356 0.64079,0.992187 0.64079,3.0024 z m -1.35909,2.34611 q 0.18087,-0.418579 0.24288,-0.981852 0.0672,-0.568441 0.0672,-1.364258 0,-0.785482 -0.0672,-1.364258 -0.062,-0.578776 -0.24805,-0.981852 -0.18087,-0.397908 -0.49609,-0.599446 -0.31006,-0.201539 -0.80099,-0.201539 -0.48576,0 -0.80615,0.201539 -0.31523,0.201538 -0.50126,0.609781 -0.1757,0.382406 -0.24288,0.997356 -0.062,0.614949 -0.062,1.348754 0,0.806153 0.0568,1.348755 0.0568,0.542603 0.24288,0.971517 0.17053,0.403076 0.48059,0.61495 0.31523,0.211873 0.83199,0.211873 0.48576,0 0.80615,-0.201538 0.3204,-0.201538 0.4961,-0.609782 z"
         style="stroke-width:0.26458332"
         id="path869" />
      <path
         d="m -118.46146,17.98752 h -0.97151 v -3.286621 q 0,-0.397908 -0.0465,-0.74414 -0.0465,-0.3514 -0.17053,-0.547771 -0.1292,-0.217041 -0.37207,-0.320393 -0.24288,-0.108521 -0.63046,-0.108521 -0.39791,0 -0.83199,0.196371 -0.43408,0.19637 -0.83199,0.501261 v 4.309814 h -0.97152 v -5.772257 h 0.97152 v 0.640788 q 0.45475,-0.377238 0.94051,-0.589112 0.48576,-0.211873 0.99736,-0.211873 0.93534,0 1.42627,0.563273 0.49092,0.563273 0.49092,1.62264 z"
         style="stroke-width:0.26458332"
         id="path871" />
    </g>
  </g>
</svg>
